<svg width="202" height="209" viewBox="0 0 202 209" fill="none" xmlns="http://www.w3.org/2000/svg">
<path d="M73.1146 147.004C60.1806 145.711 40.5317 138.436 34.5605 121.956C28.9666 106.489 38.3437 91.0003 40.4239 87.7991C40.4239 87.7991 32.4588 84.2961 33.0947 76.9561C33.7306 69.616 37.5569 68.9801 37.5569 68.9801C37.5569 68.9801 30.2276 61.9742 33.0947 52.0905C35.9617 42.2067 39.1521 41.5708 39.1521 41.5708C39.1521 41.5708 34.0324 28.1949 42.0191 20.8656C50.0059 13.5364 56.6669 16.7268 56.6669 16.7268C56.6669 16.7268 66.874 2.69336 80.2607 4.31011C93.6474 5.92686 100.977 16.7268 100.977 16.7268C100.977 16.7268 99.3814 3.34006 114.051 2.05744C119.041 1.62631 123.105 5.9053 124.883 8.43821C128.31 13.31 127.039 19.292 126.155 20.5423C124.883 22.4608 139.865 3.97598 157.078 18.9579C164.526 25.4249 164.72 37.4427 164.084 41.5924C164.019 42.0451 168.848 42.3792 172.706 45.7313C176.22 48.8031 178.742 54.8389 179.4 56.8868C180.672 60.9071 181.469 67.4173 180.348 71.8687C179.574 75.0281 177.918 77.9025 175.574 80.1572C175.574 80.1572 180.348 85.5464 172.706 95.7751C170.665 98.3606 169.707 101.637 170.033 104.915C170.357 108.149 174.948 113.538 175.886 120.317C176.123 122.01 175.315 133.176 169.839 140.074C164.364 146.972 154.222 150.281 151.99 150.281C143.066 150.281 138.604 145.172 138.604 145.172C138.604 145.172 133.506 145.819 126.748 142.445C104.092 131.096 91.9659 148.891 73.1146 147.004Z" fill="#FF8151"/>
<path d="M54.1448 59.9046C52.2294 59.9347 50.35 59.3822 48.7557 58.3201C43.0863 54.6016 42.6983 48.4364 43.0216 44.9334C43.0216 45.0197 43.2264 53.7393 48.7557 57.3609C50.4552 58.5297 52.4504 59.1947 54.5113 59.2794C57.6239 59.0234 60.656 58.1592 63.4358 56.7357C60.7039 58.6555 57.4805 59.7549 54.1448 59.9046Z" fill="black"/>
<path d="M51.9136 111.382C49.5094 111.357 47.2039 110.422 45.4604 108.767C43.7168 107.111 42.6645 104.857 42.5149 102.457C42.5149 102.565 42.5149 102.673 42.5149 102.781C42.5818 105.239 43.5999 107.576 45.355 109.299C47.11 111.022 49.4651 111.996 51.9244 112.018C56.9363 112.018 61.959 108.784 61.959 103.729C61.9646 103.625 61.9646 103.521 61.959 103.417C61.7327 108.245 56.8177 111.382 51.9136 111.382Z" fill="black"/>
<path d="M160.139 100.755C165.241 103.49 169.283 107.852 171.624 113.147C173.964 118.442 174.469 124.367 173.057 129.982C171.645 135.596 168.398 140.578 163.832 144.137C159.265 147.696 153.641 149.627 147.852 149.624C143.918 149.624 139.229 146.606 138.291 145.01C140.21 147.877 144.694 150.27 149.134 150.27C155.042 150.264 160.772 148.245 165.378 144.546C169.985 140.847 173.194 135.689 174.476 129.922C175.757 124.154 175.036 118.122 172.429 112.82C169.823 107.518 165.488 103.262 160.139 100.755Z" fill="black"/>
<path d="M44.8863 84.5224C36.7379 88.9092 32.7068 100.259 32.7068 110.164C32.7068 117.053 35.4435 123.66 40.3149 128.532C45.1863 133.403 51.7934 136.14 58.6826 136.14C62.6167 136.14 67.3052 133.111 68.243 131.516C66.3352 134.383 61.8514 136.776 57.4107 136.776C50.5215 136.776 43.9145 134.039 39.0431 129.168C34.1717 124.296 31.4349 117.689 31.4349 110.8C31.4349 100.388 36.0373 88.672 44.8863 84.5224Z" fill="black"/>
<path d="M146.569 69.4649C146.483 69.8692 146.364 70.2657 146.213 70.6505C145.821 71.7171 145.272 72.7195 144.586 73.6254C143.533 75.01 142.161 76.1194 140.587 76.8589C138.618 77.7437 136.449 78.0861 134.303 77.8505C132.153 77.6608 130.089 76.9182 128.311 75.6948C126.878 74.6992 125.721 73.3568 124.948 71.793C124.431 70.7742 124.068 69.6846 123.87 68.5595C123.796 68.154 123.756 67.743 123.751 67.3308C123.852 67.7241 123.982 68.1096 124.139 68.4841C124.542 69.4876 125.063 70.4393 125.691 71.3188C126.594 72.5842 127.759 73.6395 129.108 74.4122C130.772 75.3152 132.609 75.8552 134.497 75.9966C136.358 76.207 138.242 76.0045 140.016 75.4038C141.47 74.8632 142.798 74.0305 143.918 72.9571C144.702 72.2066 145.396 71.3674 145.987 70.4565C146.2 70.1377 146.395 69.8066 146.569 69.4649Z" fill="black"/>
<path d="M171.586 95.7642L171.93 95.1606C172.135 94.7726 172.513 94.266 172.847 93.5762C173.795 91.8968 174.537 90.109 175.056 88.2517C175.541 86.4072 175.705 84.4931 175.541 82.593C175.48 81.7642 175.332 80.9442 175.099 80.1464C175.258 80.3174 175.402 80.5013 175.53 80.6961C175.888 81.2226 176.188 81.7863 176.425 82.3775C177.223 84.3955 177.359 86.6148 176.813 88.7151C176.226 90.7637 175.111 92.622 173.58 94.1043C173.137 94.553 172.657 94.964 172.146 95.333L171.586 95.7642Z" fill="black"/>
<path d="M134.282 186.539L70.6788 185.903L80.8105 168.345H122.361L134.282 186.539Z" fill="#F8F8F8"/>
<path d="M122.372 157.492H80.8105V168.561H122.372V157.492Z" fill="#FFCAB0"/>
<path d="M19.6973 155.271C18.6195 156.047 8.72496 163.689 9.51178 174.802C9.93214 180.805 13.295 185.127 14.7393 186.981C18.2678 191.372 22.92 194.724 28.2014 196.682C52.9916 206.63 87.1589 206.878 87.1589 206.878C101.483 206.975 119.494 206.598 140.296 204.938L86.4044 175.33C86.4044 175.33 77.4907 169.143 66.7232 163.172C54.1233 156.177 46.309 152.394 35.9403 152.286C30.3852 152.238 24.8721 153.251 19.6973 155.271Z" fill="white"/>
<path d="M137.849 97.2623C137.849 97.2623 134.099 94.8479 129.96 92.5737C129.107 92.0931 128.217 91.6821 127.297 91.345C125.066 90.5258 123.654 90.6983 120.572 90.1378C116.444 89.3833 116.638 88.4456 116.638 88.4456L111.367 93.1881C108.818 95.4734 105.516 96.7372 102.092 96.7372C98.6691 96.7372 95.3664 95.4734 92.8176 93.1881L87.5578 88.4456C87.5578 88.4456 87.741 89.3833 83.6129 90.1378C80.5303 90.6983 79.1183 90.5258 76.8872 91.345C75.9726 91.6845 75.086 92.0954 74.2357 92.5737C70.1184 94.8479 66.3676 97.2623 66.3676 97.2623L74.6238 117.903C74.6238 117.903 71.7567 158.613 72.8346 158.44C73.9124 158.268 97.8834 158.44 101.839 158.44H102.4C106.344 158.44 130.423 158.268 131.393 158.44C132.363 158.613 129.604 117.914 129.604 117.914L137.849 97.2623Z" fill="#A3003F"/>
<path d="M102.658 119.315C101.99 118.959 100.427 120.393 99.4893 121.675C97.0966 124.909 97.1397 128.843 97.4415 131.3C86.9649 134.857 76.6716 139.751 71.2717 141.572C68.4724 142.423 65.7293 143.449 63.0586 144.644C58.4886 146.8 56.764 148.352 56.1497 147.877C55.0718 146.929 59.0706 140.645 63.2634 133.973C66.3675 128.972 70.7866 121.902 76.068 113.171L76.9087 91.3235C72.9207 91.9486 71.2717 96.4432 68.4909 96.9929C66.9742 97.4315 65.6777 98.424 64.8586 99.7737C60.8194 104.914 57.5849 110.638 55.2658 116.75C48.1952 130.675 44.6492 137.649 43.4097 143.178C41.836 150.076 39.9929 158.214 44.2504 162.105C47.5593 165.134 52.9916 164.11 57.1844 163.409C67.316 161.695 91.8583 143.448 98.7241 137.541C100.88 135.676 102.658 133.855 102.852 127.84C102.874 127.108 103.251 119.638 102.658 119.315Z" fill="#FFCAB0"/>
<path d="M74.6238 117.903C78.7541 109.668 79.5681 100.162 76.898 91.3452C74.9558 91.4509 73.0591 91.9728 71.3364 92.8757C69.3477 93.9117 67.6421 95.4176 66.3676 97.2625L74.6238 117.903Z" fill="#8C063D"/>
<path d="M115.711 88.8661C111.486 86.0314 108.166 80.0926 107.638 78.9932C107.11 77.8938 107.26 65.3694 107.26 65.3694H97.2259C97.2259 65.3694 97.3229 77.8938 96.8486 78.9932C96.3744 80.0926 93.0008 86.0314 88.7864 88.8661C85.0032 91.3991 102.108 104.624 102.108 104.624C104.889 102.393 119.483 91.3991 115.711 88.8661Z" fill="#FFCAB0"/>
<path d="M97.2366 66.4149L107.444 77.4842L107.26 65.3694L97.2366 66.4149Z" fill="#E8B0A0"/>
<path d="M89.39 48.0917C89.39 48.0917 88.075 67.9562 102.583 67.2987C117.09 66.6412 114.277 48.0917 114.277 48.0917C113.738 42.7025 108.78 38.3912 102.917 37.9816C96.3204 37.5074 90.0798 41.948 89.39 48.0917Z" fill="#FFCAB0"/>
<path d="M89.8965 48.5013C89.8965 48.5013 85.9516 49.0726 86.2534 51.7348C86.3013 52.4722 86.5117 53.1899 86.8694 53.8365C87.2272 54.4831 87.7235 55.0426 88.3229 55.4749C88.9507 55.6288 89.595 55.7048 90.2414 55.7012" fill="#FCBFAC"/>
<path d="M106.366 35.4917C106.366 35.4917 107.584 36.4833 103.305 40.2126C100.513 42.6377 98.7349 44.8149 97.2151 45.9467C95.0595 47.5095 94.0679 48.2963 92.4403 48.7814C90.5804 49.3145 88.6166 49.3737 86.7278 48.9538C83.5469 48.3787 80.7203 46.5743 78.8596 43.9311C78.3746 43.1766 78.1267 42.8533 78.1375 42.4653C78.2237 40.5575 83.5482 38.0677 106.366 35.4917Z" fill="#FF8151"/>
<path d="M114.072 48.5013C114.072 48.5013 118.028 49.0726 117.715 51.7348C117.668 52.4722 117.457 53.1899 117.099 53.8365C116.742 54.4831 116.245 55.0426 115.646 55.4749C115.018 55.6295 114.374 55.7055 113.727 55.7012" fill="#FCBFAC"/>
<path d="M105.601 37.9925C105.601 37.9925 97.0641 48.7708 90.5971 49.7409C85.6068 51.0343 80.3793 44.9445 80.3793 44.9445C81.4748 46.2874 82.8633 47.3615 84.4383 48.0845C86.0133 48.8076 87.733 49.1603 89.4654 49.1157C94.9085 48.9325 105.601 37.9925 105.601 37.9925Z" fill="black"/>
<path d="M101.893 33.6378L105.87 40.9671L108.112 44.3407L110.009 46.7766L113.264 48.4041L123.212 47.6173L113.242 34.8881L101.893 33.6378Z" fill="#FF8151"/>
<path d="M102.701 35.2331C102.701 35.2331 106.668 45.4402 111.507 47.7575C115.107 49.9132 120.744 46.6797 120.744 46.6797C119.527 47.4277 118.16 47.8977 116.74 48.0561C115.32 48.2145 113.883 48.0573 112.531 47.5958C108.317 46.0977 102.701 35.2331 102.701 35.2331Z" fill="black"/>
<path d="M78.2775 92.9297C77.3722 92.9297 76.4668 93.0375 75.5614 93.1129C75.4428 93.1129 75.4428 93.3285 75.5614 93.3177C76.4668 93.2458 77.3722 93.1812 78.2775 93.1237C78.4069 93.1237 78.4069 92.9189 78.2775 92.9297Z" fill="#E81F71"/>
<path d="M78.9889 95.1068L77.0165 95.3979C76.8872 95.3979 76.941 95.6026 77.0165 95.5811L78.9997 95.3008C79.1183 95.3008 79.0644 95.0853 78.9458 95.1068H78.9889Z" fill="#E81F71"/>
<path d="M79.5385 97.3054C78.8918 97.3809 78.2451 97.4456 77.5984 97.4887C77.4799 97.4887 77.4799 97.6935 77.5984 97.6827C78.2451 97.6827 78.8918 97.5749 79.5385 97.4994C79.6571 97.4994 79.6571 97.2947 79.5385 97.3054Z" fill="#E81F71"/>
<path d="M80.0129 99.3532L77.9434 99.1592C77.8141 99.1592 77.8248 99.3425 77.9434 99.364L80.0129 99.5688C80.1422 99.5688 80.1422 99.3856 80.0129 99.3748V99.3532Z" fill="#E81F71"/>
<path d="M80.5948 101.606L78.0295 101.25C77.911 101.25 77.8571 101.423 78.0295 101.434L80.6056 101.8C80.7241 101.8 80.778 101.628 80.6056 101.606H80.5948Z" fill="#E81F71"/>
<path d="M80.1421 103.794C79.323 103.719 78.5038 103.632 77.6955 103.535C77.5661 103.535 77.5661 103.719 77.6955 103.74L80.1421 103.988C80.2607 103.988 80.2607 103.805 80.1421 103.794Z" fill="#E81F71"/>
<path d="M79.7327 106.133C78.892 106.036 78.0513 105.928 77.2213 105.788C77.092 105.788 77.0381 105.961 77.2213 105.982C78.0728 106.111 78.9243 106.23 79.7866 106.327C79.9051 106.327 79.9051 106.155 79.7866 106.133H79.7327Z" fill="#E81F71"/>
<path d="M79.4631 108.526L76.9194 108.224C76.7901 108.224 76.8009 108.407 76.9194 108.418L79.4631 108.72C79.5925 108.72 79.5925 108.537 79.4631 108.526Z" fill="#E81F71"/>
<path d="M78.4931 110.638C77.7602 110.509 77.0272 110.412 76.3374 110.326C76.2081 110.326 76.2081 110.509 76.3374 110.52C77.0488 110.606 77.7709 110.703 78.4931 110.821C78.6117 110.821 78.6655 110.66 78.4931 110.638Z" fill="#E81F71"/>
<path d="M77.4046 112.233C76.5746 112.104 75.7447 111.975 74.9148 111.878C74.7962 111.878 74.7962 112.05 74.9148 112.072C75.7339 112.169 76.5423 112.287 77.3507 112.427C77.4693 112.427 77.5231 112.255 77.3507 112.233H77.4046Z" fill="#E81F71"/>
<path d="M76.1758 114.109C75.5291 114.033 74.8824 113.969 74.2249 113.915C74.1063 113.915 74.1063 114.109 74.2249 114.12C74.8824 114.12 75.5291 114.227 76.1758 114.303C76.3051 114.303 76.3051 114.12 76.1758 114.109Z" fill="#E81F71"/>
<path d="M102.777 165.015C102.893 164.74 102.946 164.442 102.931 164.143C102.916 163.844 102.834 163.553 102.69 163.29C102.572 163.064 102.238 163.29 102.356 163.484C102.466 163.708 102.523 163.953 102.523 164.201C102.523 164.45 102.466 164.695 102.356 164.918C102.259 165.144 102.637 165.241 102.734 165.015H102.777Z" fill="black"/>
<path d="M92.8713 178.833L88.7971 191.918L101.031 183.306L92.8713 178.833Z" fill="#DADADA" fill-opacity="0.3"/>
<path d="M55.7292 147.662C51.5041 150.044 47.9149 153.698 47.958 158.828C47.9757 158.949 48.0361 159.059 48.1281 159.138C48.2201 159.217 48.3376 159.261 48.4592 159.261C48.5808 159.261 48.6983 159.217 48.7903 159.138C48.8824 159.059 48.9427 158.949 48.9604 158.828C48.9604 154.043 52.3233 150.734 56.2358 148.524C56.7963 148.212 56.2358 147.349 55.7292 147.662Z" fill="black"/>
<path d="M56.958 17.589C60.3532 11.9088 65.1388 6.81064 71.595 4.71965C78.3207 2.56398 86.0595 4.3963 90.2954 10.2274C90.5218 10.5292 91.0283 10.2274 90.802 9.92558C88.8307 7.33504 86.16 5.36205 83.1045 4.23917C80.0491 3.11628 76.7363 2.89032 73.5567 3.58792C66.0118 5.07533 60.2454 10.9064 56.4191 17.2872C56.3993 17.3204 56.3862 17.3573 56.3806 17.3956C56.3751 17.4339 56.3771 17.473 56.3866 17.5105C56.3961 17.548 56.4129 17.5833 56.4361 17.6143C56.4592 17.6454 56.4882 17.6716 56.5215 17.6914C56.5548 17.7112 56.5916 17.7243 56.6299 17.7298C56.6682 17.7354 56.7073 17.7334 56.7448 17.7239C56.7823 17.7144 56.8176 17.6976 56.8487 17.6744C56.8797 17.6513 56.9059 17.6222 56.9257 17.589H56.958Z" fill="black"/>
<path d="M36.3068 41.5384C29.1284 42.918 24.8602 48.7276 24.6446 55.8844C24.4075 63.5262 29.8182 66.6627 36.3068 69.0447C36.6624 69.1741 36.8133 68.6028 36.4684 68.4735C30.3356 66.2208 24.9787 63.343 25.2266 55.8844C25.453 48.997 29.538 43.4354 36.4576 42.1097C36.8241 42.0342 36.6732 41.4737 36.3068 41.5384Z" fill="black"/>
<path d="M32.9547 71.3405C32.338 72.5596 31.9859 73.8951 31.9212 75.2598C31.8566 76.6244 32.0809 77.9873 32.5795 79.2592C33.078 80.5311 33.8397 81.6834 34.8145 82.6405C35.7893 83.5977 36.9552 84.3381 38.236 84.8134C38.5917 84.9535 38.7426 84.3823 38.3977 84.2422C37.194 83.8056 36.0971 83.1174 35.1802 82.2235C34.2633 81.3297 33.5475 80.2507 33.0804 79.0585C32.6133 77.8662 32.4056 76.5881 32.4713 75.3093C32.537 74.0305 32.8745 72.7804 33.4612 71.6423C33.6229 71.2974 33.1163 71.0064 32.9547 71.3405Z" fill="black"/>
<path d="M125.206 21.2535C132.449 14.9913 143.734 11.165 153.23 14.3554C163.426 17.8045 163.782 35.0821 162.456 43.7695C162.402 44.1359 162.963 44.2976 163.017 43.9311C163.959 38.1075 163.713 32.1534 162.295 26.4271C161.141 21.9326 159.471 16.5542 154.965 14.3877C145.351 9.75304 132.331 14.3877 124.84 20.8547C124.549 21.1026 124.969 21.5122 125.25 21.2643L125.206 21.2535Z" fill="black"/>
<path d="M165.69 43.4355C170.659 43.263 176.026 45.5912 176.727 51.045C176.781 51.4115 177.363 51.4223 177.32 51.045C176.565 45.2463 171.036 42.6702 165.69 42.8427C165.313 42.8427 165.313 43.4463 165.69 43.4355Z" fill="black"/>
<path d="M88.323 54.5046C88.1397 55.2591 87.2451 55.6902 86.9326 56.4124C86.8097 56.6946 86.7463 56.9992 86.7463 57.307C86.7463 57.6148 86.8097 57.9193 86.9326 58.2016C87.2442 58.7615 87.701 59.2272 88.2548 59.5496C88.8086 59.872 89.439 60.0393 90.0798 60.0339C90.3062 60.0339 90.3062 59.6998 90.0798 59.6782C88.6571 59.5273 86.7062 58.6004 87.1697 56.7788C87.4068 55.8627 88.4523 55.4962 88.6571 54.6232C88.6571 54.4076 88.3661 54.3106 88.323 54.537V54.5046Z" fill="black"/>
<path d="M115.193 54.3861C116.092 54.8099 116.81 55.5397 117.22 56.4448C117.715 57.9646 116.347 58.2232 115.28 58.6005C115.064 58.6759 115.161 59.0208 115.377 58.9454C116.454 58.5897 117.694 58.4172 117.705 57.0484C117.715 55.6796 116.411 54.6772 115.366 54.0951C115.172 53.9874 114.989 54.2891 115.193 54.3969V54.3861Z" fill="black"/>
<path d="M100.858 14.0105C100.308 10.0441 100.384 6.29324 103.855 3.68488C106.243 1.77263 109.148 0.616724 112.197 0.365156C118.815 0.0633629 124.053 4.81661 125.368 11.1435C125.368 11.3698 125.756 11.2728 125.713 11.0573C124.301 4.0729 118.103 -0.906687 110.893 0.138811C107.479 0.672833 104.334 2.30794 101.936 4.79505C99.6294 7.41419 100.007 10.8848 100.459 14.1075C100.459 14.3339 100.826 14.2369 100.793 14.0213L100.858 14.0105Z" fill="black"/>
<path d="M73.5458 160.251L131.749 160.682C132.06 160.682 132.359 160.558 132.58 160.338C132.8 160.118 132.924 159.819 132.924 159.507C132.924 159.196 132.8 158.897 132.58 158.677C132.359 158.456 132.06 158.333 131.749 158.333L73.5458 157.912C73.2551 157.94 72.9851 158.075 72.7887 158.292C72.5922 158.508 72.4834 158.789 72.4834 159.082C72.4834 159.374 72.5922 159.655 72.7887 159.872C72.9851 160.088 73.2551 160.223 73.5458 160.251Z" fill="#E81F71"/>
<path d="M65.6561 98.2756C67.6286 101.024 68.1136 104.322 69.4393 107.372C70.9699 110.908 72.7267 114.163 73.686 117.935C73.7475 118.16 73.8956 118.35 74.0977 118.466C74.2998 118.581 74.5394 118.611 74.7638 118.55C74.9882 118.488 75.179 118.34 75.2942 118.138C75.4095 117.936 75.4397 117.696 75.3782 117.472C74.4094 114.063 73.1023 110.759 71.4764 107.61C69.892 104.236 69.3747 100.453 67.1651 97.3917C66.5076 96.4756 65.0094 97.3917 65.6454 98.2756H65.6561Z" fill="#E81F71"/>
<path d="M103.93 202.33C94.1216 203.214 84.0438 201.909 74.214 201.64C65.5284 201.578 56.857 200.926 48.2598 199.689C39.9497 198.342 31.5102 196.024 24.472 191.239C16.3559 185.72 11.7643 177.464 10.3739 167.839C10.32 167.473 9.74876 167.623 9.80265 168.001C11.0961 176.882 15.0625 184.761 22.2193 190.323C28.8156 195.464 36.9964 198.148 45.1017 199.721C53.8058 201.244 62.619 202.058 71.4547 202.157C82.1684 202.481 93.2377 203.882 103.93 202.912C104.296 202.912 104.296 202.297 103.93 202.33Z" fill="#E81F71"/>
<path d="M105.471 200.777C95.6739 201.661 85.5854 200.357 75.7663 200.098C67.0811 200.026 58.4105 199.374 49.8121 198.148C41.502 196.789 33.0517 194.472 26.0243 189.687C17.8974 184.179 13.3166 175.912 11.9262 166.298C11.8723 165.92 11.3011 166.082 11.355 166.448C12.6376 175.33 16.604 183.209 23.7608 188.781C30.3572 193.912 38.5379 196.595 46.654 198.18C55.3584 199.699 64.1716 200.51 73.007 200.605C83.7207 200.928 94.79 202.33 105.471 201.37C105.849 201.37 105.849 200.745 105.471 200.777Z" fill="#E81F71"/>
<path d="M182.353 155.272C183.431 156.048 193.326 163.689 192.539 174.802C192.108 180.805 188.756 185.128 187.311 186.981C183.783 191.372 179.13 194.724 173.849 196.682C149.059 206.63 114.892 206.878 114.892 206.878C100.567 206.975 82.5566 206.598 61.7544 204.938L115.646 175.33C115.646 175.33 124.571 169.1 135.349 163.129C147.949 156.134 155.763 152.351 166.132 152.243C171.682 152.211 177.188 153.239 182.353 155.272Z" fill="white"/>
<path d="M88.7972 191.918L91.8366 205.746C91.8366 205.746 74.3003 210.176 67.0465 201.273C65.6561 199.57 63.1339 196.218 64.1794 194.462C65.2249 192.705 69.3423 193.836 75.3458 193.858C79.9001 193.869 84.4316 193.215 88.7972 191.918Z" fill="#FFCAB0"/>
<path d="M88.1613 191.853C89.0882 197.587 92.8499 202.287 93.9493 208.021C94.0247 208.387 94.5852 208.226 94.5205 207.859C93.4427 202.179 89.6487 197.469 88.7218 191.745C88.7218 191.368 88.1074 191.53 88.1613 191.896V191.853Z" fill="#E81F71"/>
<path d="M90.0798 191.347C91.151 196.908 92.922 202.311 95.3504 207.428C95.5121 207.773 96.0187 207.428 95.857 207.126C93.4532 202.054 91.7039 196.698 90.6511 191.185C90.5756 190.818 90.0152 190.98 90.0798 191.347Z" fill="#E81F71"/>
<path d="M97.9049 202.297C108.586 203.257 119.645 201.856 130.369 201.532C139.205 201.437 148.018 200.626 156.722 199.107C164.828 197.523 173.008 194.796 179.615 189.708C186.772 184.136 190.728 176.268 192.021 167.376C192.021 167.009 191.504 166.847 191.45 167.225C190.092 176.656 185.651 184.847 177.74 190.355C170.637 195.313 162.025 197.695 153.564 199.075C145.116 200.287 136.597 200.935 128.063 201.015C118.093 201.284 107.853 202.61 97.8833 201.705C97.5061 201.705 97.5061 202.265 97.8833 202.297H97.9049Z" fill="#E81F71"/>
<path d="M96.3528 200.745C107.045 201.704 118.104 200.303 128.817 199.98C137.653 199.89 146.466 199.079 155.17 197.555C163.286 195.97 171.467 193.243 178.063 188.156C185.22 182.584 189.187 174.715 190.469 165.823C190.523 165.457 189.963 165.295 189.909 165.672C188.54 175.103 184.099 183.295 176.199 188.803C169.085 193.761 160.473 196.154 152.023 197.522C143.572 198.74 135.049 199.388 126.511 199.463C116.541 199.732 106.301 201.058 96.3313 200.163C95.954 200.163 95.954 200.713 96.3313 200.745H96.3528Z" fill="#E81F71"/>
<path d="M101.936 119.315C102.593 118.959 104.156 120.393 105.094 121.675C107.487 124.909 107.455 128.843 107.142 131.3C117.618 134.857 127.912 139.751 133.312 141.572C136.111 142.423 138.854 143.449 141.525 144.644C146.095 146.8 147.819 148.352 148.434 147.877C149.512 146.929 145.513 140.645 141.32 133.973C138.205 129.026 133.775 121.956 128.483 113.247L127.642 91.399C131.63 92.0241 133.279 96.5187 136.06 97.0684C137.554 97.5054 138.835 98.4758 139.66 99.7953C143.699 104.934 146.93 110.658 149.242 116.771C156.323 130.697 159.859 137.67 161.098 143.2C162.661 150.098 164.504 158.235 160.247 162.126C156.938 165.155 151.506 164.131 147.313 163.431C137.181 161.717 112.639 143.469 105.773 137.563C103.617 135.698 101.839 133.876 101.656 127.862C101.699 127.108 101.332 119.638 101.936 119.315Z" fill="#FFCAB0"/>
<path d="M129.593 117.978C125.452 109.743 124.634 100.231 127.308 91.4099C129.401 91.5302 131.438 92.1268 133.265 93.1542C135.092 94.1815 136.66 95.6125 137.849 97.338L129.593 117.978Z" fill="#8C063D"/>
<path d="M126.414 93.1237C127.319 93.174 128.224 93.2387 129.13 93.3177C129.259 93.3177 129.259 93.1237 129.13 93.1129C128.224 93.0375 127.319 92.9728 126.414 92.9297C126.284 92.9297 126.284 93.1129 126.414 93.1237Z" fill="#E81F71"/>
<path d="M125.648 95.3007L127.621 95.5809C127.739 95.5809 127.793 95.4193 127.621 95.3977L125.638 95.1067C125.519 95.1067 125.465 95.2791 125.638 95.3007H125.648Z" fill="#E81F71"/>
<path d="M125.163 97.4995C125.799 97.5749 126.446 97.6396 127.093 97.6827C127.222 97.6827 127.222 97.4995 127.093 97.4887C126.446 97.4887 125.799 97.3809 125.163 97.3055C125.034 97.3055 125.034 97.4887 125.163 97.4995Z" fill="#E81F71"/>
<path d="M124.678 99.5474L126.748 99.3426C126.877 99.3426 126.877 99.127 126.748 99.1378L124.678 99.3533C124.56 99.3533 124.549 99.5581 124.678 99.5474Z" fill="#E81F71"/>
<path d="M124.15 101.8L126.715 101.434C126.834 101.434 126.78 101.229 126.715 101.25L124.15 101.606C124.032 101.606 124.075 101.822 124.15 101.8Z" fill="#E81F71"/>
<path d="M124.571 103.988L127.017 103.74C127.136 103.74 127.136 103.525 127.017 103.535L124.571 103.794C124.441 103.794 124.441 103.999 124.571 103.988Z" fill="#E81F71"/>
<path d="M124.959 106.327C125.821 106.23 126.672 106.111 127.524 105.982C127.653 105.982 127.599 105.777 127.524 105.788C126.683 105.928 125.842 106.036 125.002 106.133C124.883 106.133 124.883 106.349 125.002 106.327H124.959Z" fill="#E81F71"/>
<path d="M125.228 108.72L127.772 108.418C127.901 108.418 127.901 108.213 127.772 108.224L125.228 108.526C125.109 108.526 125.109 108.731 125.228 108.72Z" fill="#E81F71"/>
<path d="M126.252 110.822C126.974 110.703 127.685 110.606 128.408 110.52C128.526 110.52 128.526 110.315 128.408 110.326C127.664 110.412 126.931 110.509 126.252 110.638C126.123 110.638 126.176 110.843 126.252 110.822Z" fill="#E81F71"/>
<path d="M127.351 112.427C128.163 112.291 128.972 112.172 129.776 112.072C129.906 112.072 129.906 111.856 129.776 111.878C128.947 111.975 128.117 112.104 127.297 112.233C127.168 112.233 127.222 112.438 127.297 112.427H127.351Z" fill="#E81F71"/>
<path d="M128.515 114.303C129.162 114.227 129.82 114.163 130.466 114.12C130.488 114.113 130.507 114.099 130.52 114.08C130.533 114.062 130.54 114.04 130.54 114.017C130.54 113.995 130.533 113.972 130.52 113.954C130.507 113.936 130.488 113.922 130.466 113.915C129.82 113.915 129.162 114.033 128.515 114.109C128.386 114.109 128.386 114.314 128.515 114.303Z" fill="#E81F71"/>
<path d="M137.601 96.5617C135.629 99.364 135.069 102.878 133.969 106.079C132.541 110.139 130.845 114.1 128.893 117.935C128.386 118.937 129.895 119.832 130.412 118.819C132.02 115.664 133.459 112.426 134.724 109.118C136.157 105.357 136.815 100.711 139.132 97.4132C139.779 96.4862 138.259 95.6132 137.612 96.5293L137.601 96.5617Z" fill="#E81F71"/>
<path d="M37.3415 158.02C38.4193 170.437 54.3497 172.883 62.261 165.371C63.3388 164.293 61.6897 162.676 60.6011 163.711C54.285 169.714 40.5857 168.475 39.6911 158.02C39.5618 156.522 37.2121 156.511 37.3415 158.02Z" fill="#DADADA"/>
<path d="M165.011 158.02C164.116 168.475 150.406 169.714 144.101 163.711C143.023 162.633 141.342 164.325 142.441 165.371C150.341 172.916 166.293 170.437 167.36 158.02C167.49 156.511 165.14 156.522 165.011 158.02Z" fill="#DADADA"/>
<path d="M102.044 135.547C102.141 138.619 104.124 140.936 106.484 142.995C109.701 145.759 113.198 148.179 116.918 150.216C117.274 150.421 117.608 149.915 117.252 149.71C112.046 146.81 102.884 141.798 102.69 135.547C102.69 135.17 102.033 135.159 102.044 135.547Z" fill="black"/>
<path d="M102.022 135.547C101.828 141.799 92.6666 146.811 87.4714 149.71C87.1157 149.915 87.4714 150.421 87.7947 150.216C93.324 147.134 102.464 142.165 102.68 135.547C102.68 135.17 102.044 135.17 102.022 135.547Z" fill="black"/>
<path d="M102.443 113.311C109.33 116.545 110.472 121.816 110.44 128.52C110.44 129.005 111.216 129.005 111.227 128.52C111.227 121.46 109.955 116.006 102.841 112.665C102.389 112.46 101.99 113.107 102.443 113.311Z" fill="black"/>
<path d="M101.796 112.665C94.6821 116.006 93.3779 121.46 93.4102 128.52C93.4102 129.005 94.2078 129.005 94.1971 128.52C94.1971 121.816 95.2749 116.534 102.195 113.311C102.647 113.107 102.248 112.46 101.796 112.665Z" fill="black"/>
<path d="M148.412 148.05C152.325 150.206 155.731 153.568 155.688 158.354C155.705 158.474 155.766 158.584 155.858 158.664C155.95 158.743 156.067 158.787 156.189 158.787C156.31 158.787 156.428 158.743 156.52 158.664C156.612 158.584 156.672 158.474 156.69 158.354C156.69 153.213 153.144 149.559 148.919 147.188C148.862 147.154 148.799 147.133 148.734 147.124C148.669 147.115 148.603 147.118 148.54 147.135C148.476 147.151 148.416 147.18 148.364 147.22C148.312 147.259 148.268 147.309 148.234 147.366C148.201 147.422 148.179 147.485 148.17 147.55C148.161 147.615 148.165 147.681 148.181 147.745C148.198 147.808 148.227 147.868 148.266 147.92C148.306 147.973 148.356 148.017 148.412 148.05Z" fill="black"/>
<path d="M18.9428 150.701C15.1762 151.103 11.5948 152.542 8.59705 154.858C5.59927 157.174 3.30251 160.276 1.96216 163.819C0.621822 167.361 0.290425 171.207 1.00482 174.927C1.71922 178.647 3.45141 182.096 6.00879 184.89C6.76328 185.742 8.00279 184.492 7.25908 183.651C4.92301 181.111 3.33658 177.974 2.67596 174.587C2.01535 171.2 2.3064 167.696 3.5168 164.465C4.7272 161.233 6.80958 158.4 9.53269 156.281C12.2558 154.162 15.5131 152.838 18.9428 152.458C20.0206 152.318 20.0206 150.551 18.9428 150.701Z" fill="white"/>
<path d="M183.744 152.458C187.17 152.845 190.422 154.174 193.139 156.296C195.856 158.418 197.933 161.251 199.138 164.482C200.344 167.712 200.631 171.213 199.969 174.596C199.306 177.98 197.719 181.114 195.384 183.651C194.63 184.492 195.869 185.742 196.624 184.89C199.18 182.099 200.912 178.655 201.629 174.939C202.346 171.223 202.019 167.381 200.685 163.84C199.351 160.298 197.062 157.196 194.071 154.876C191.08 152.557 187.506 151.112 183.744 150.701C182.666 150.551 182.666 152.318 183.744 152.458Z" fill="white"/>
<path d="M106.021 51.2174C106.188 51.632 106.45 52.0013 106.786 52.2953C107.144 52.5099 107.554 52.6233 107.972 52.6233C108.389 52.6233 108.799 52.5099 109.157 52.2953C109.501 51.9816 109.795 51.6183 110.031 51.2174C109.982 51.7203 109.792 52.1989 109.481 52.5971C109.082 52.9667 108.559 53.1722 108.015 53.1722C107.471 53.1722 106.948 52.9667 106.549 52.5971C106.2 52.2236 106.011 51.7286 106.021 51.2174Z" fill="black"/>
<path d="M94.1432 51.2173C94.3099 51.6346 94.5763 52.0047 94.9192 52.2951C95.2676 52.5308 95.6856 52.641 96.1049 52.6077C96.5238 52.6258 96.937 52.5045 97.2797 52.2628C97.6234 51.9467 97.9209 51.5839 98.1635 51.185C98.1188 51.6966 97.9322 52.1856 97.6246 52.5969C97.226 52.9666 96.7024 53.172 96.1588 53.172C95.6151 53.172 95.0915 52.9666 94.6929 52.5969C94.3359 52.2269 94.1386 51.7314 94.1432 51.2173Z" fill="black"/>
<path d="M99.209 59.8184C99.4857 60.3558 99.8843 60.8209 100.373 61.1765C100.885 61.503 101.479 61.6785 102.087 61.683C102.692 61.6774 103.284 61.4978 103.79 61.1657C104.282 60.8147 104.684 60.3533 104.965 59.8184C104.876 60.4441 104.566 61.0175 104.092 61.4351C103.532 61.8674 102.836 62.0853 102.13 62.0495C101.409 62.1009 100.694 61.8819 100.125 61.4351C99.6392 61.0207 99.3148 60.4483 99.209 59.8184Z" fill="#686868"/>
</svg>
