<svg width="63" height="151" viewBox="0 0 63 151" fill="none" xmlns="http://www.w3.org/2000/svg">
<path d="M24.9054 8C20.4054 19 24.3054 31.8 32.1054 40.1C37.7054 46.1 50.4054 55.6 59.5054 54C60.7054 53.8 61.8054 53.4 62.8054 52.8C69.1054 49.1 70.0055 38.8 68.2055 32.5C66.3055 25.6 60.7054 20 53.9054 18C49.3054 16.6 43.5054 16.4 41.3054 12.1C39.7054 8.89999 40.7054 4.5 38.4054 1.8C37.3054 0.599995 35.7054 0 34.1054 0C32.8054 0 31.5054 0.4 30.4054 1C27.8054 2.5 26.1054 5.2 24.9054 8Z" fill="#7175DA"/>
<path opacity="0.5" d="M24.9054 8C20.4054 19 24.3054 31.8 32.1054 40.1C37.7054 46.1 50.4054 55.6 59.5054 54C60.7054 53.8 61.8054 53.4 62.8054 52.8C69.1054 49.1 70.0055 38.8 68.2055 32.5C66.3055 25.6 60.7054 20 53.9054 18C49.3054 16.6 43.5054 16.4 41.3054 12.1C39.7054 8.89999 40.7054 4.5 38.4054 1.8C37.3054 0.599995 35.7054 0 34.1054 0C32.8054 0 31.5054 0.4 30.4054 1C27.8054 2.5 26.1054 5.2 24.9054 8Z" fill="#7175DA"/>
<path opacity="0.2" d="M34.1054 0C32.8054 3.1 32.6054 6.6 33.3054 9.8C34.2054 14 36.4054 17.8 39.1054 21C41.8054 24.2 45.0054 27 48.2054 29.8C51.3054 32.6 54.5054 35.5 56.9054 39C58.5054 41.3 59.8054 43.7 60.8054 46.3C61.5054 48.2 61.6054 51.2 62.9054 52.8C69.2054 49.1 70.1054 38.8 68.3054 32.5C66.4054 25.6 60.8054 20 54.0054 18C49.4054 16.6 43.6054 16.4 41.4054 12.1C39.8054 8.89999 40.8054 4.5 38.5054 1.8C37.4054 0.599995 35.8054 0 34.1054 0Z" fill="#7578DC"/>
<path d="M44.2054 26.3C53.8054 32.8 60.6054 43.4 62.6054 55.1" stroke="white" stroke-miterlimit="10" stroke-linecap="round" stroke-linejoin="round"/>
<path d="M7.89368 50.375C4.2392 47.1806 2.04651 42.8245 0 38.4684C2.92359 39.9205 6.28572 40.6465 9.50166 41.5177C13.7409 42.6793 24.5581 46.1641 22.3654 52.553C22.3654 52.6982 22.2192 52.6982 22.2192 52.8434C25.4352 54.7311 28.6511 56.7639 31.7209 58.9419C30.1129 55.6023 32.1595 48.923 33.3289 46.5997C35.5216 42.3889 39.3223 39.1944 42.9767 36C42.2459 39.1944 42.392 42.5341 42.392 45.8737C42.392 50.2298 41.6611 61.5556 34.7907 60.9748C34.6445 60.9748 34.6445 60.9748 34.4983 60.9748C38.299 63.8788 42.0997 66.928 45.608 70.2677C44 66.928 45.9003 60.2487 47.2159 57.7803C49.4086 53.5694 53.2093 50.375 56.8638 47.1806C56.1329 50.375 56.2791 53.7146 56.2791 57.0543C56.2791 61.4104 55.5482 72.7361 48.6777 72.1553C48.2392 72.1553 47.8007 72.0101 47.3621 71.8649C50.7243 75.2045 54.0864 78.6894 57.1561 82.3194C55.9867 78.8346 57.8871 72.7361 59.0565 70.4129C61.2492 66.202 65.0499 63.0076 68.7043 59.8131C67.9734 63.0076 68.1196 66.3472 68.1196 69.6869C68.1196 74.0429 67.3887 85.3687 60.5183 84.7879C59.9336 84.7879 59.495 84.6427 59.0565 84.3523C61.9801 87.9823 64.7575 91.9028 67.3887 95.8232C66.2193 92.3384 68.1196 86.2399 69.289 84.0619C71.4817 79.851 75.2824 76.6566 78.9369 73.4621C78.206 76.6566 78.3521 79.9962 78.3521 83.3359C78.3521 87.6919 77.6213 99.0177 70.7508 98.4369C69.8738 98.4369 69.1429 98.1465 68.7043 97.7109C78.7907 113.828 85.515 132.124 88 150.855L86.9768 151C84.6379 132.559 78.0598 114.7 68.1196 98.8725C68.1196 99.1629 67.9734 99.4533 67.9734 99.8889C65.9269 106.423 55.1096 102.938 51.0166 101.341C47.9468 100.179 44.8771 98.8725 41.515 98.2917C45.7542 96.1136 50.1395 93.7904 54.9634 93.3548C57.3023 93.0644 62.7109 93.5 65.9269 95.3876C63.7342 92.048 61.2492 88.7083 58.7641 85.5139C58.7641 85.9495 58.7641 86.3851 58.6179 86.8207C56.5714 93.3548 45.7542 89.87 41.6611 88.2727C38.5914 87.1111 35.5216 85.8043 32.1595 85.2235C36.3987 83.0455 40.784 80.7222 45.608 80.2866C47.8007 79.9962 52.6246 80.4318 55.8405 81.8838C53.0631 78.5442 49.9934 75.3498 46.7774 72.3005C46.9236 72.8813 46.9236 73.6073 46.7774 74.4785C44.7309 81.0126 33.9136 77.5278 29.8206 75.9306C26.7508 74.7689 23.6811 73.4621 20.3189 72.8813C24.5581 70.7033 28.9435 68.3801 33.7674 67.9444C35.8139 67.7992 40.4917 68.0896 43.7076 69.3965C40.4917 66.4924 37.1296 63.7336 33.6213 61.12C34.0598 61.846 34.0598 62.7172 33.7674 63.8788C31.7209 70.4129 20.9037 66.928 16.8106 65.3308C13.7409 64.1692 10.6711 62.8624 7.30897 62.2816C11.5482 60.1035 15.9335 57.7803 20.7575 57.3447C22.6578 57.1995 26.6046 57.3447 29.6744 58.5063C27.1894 56.9091 24.7043 55.3119 22.2192 53.8598C18.8571 57.4899 10.5249 52.6982 7.89368 50.375Z" fill="#1A1C6C"/>
</svg>
