<svg width="125" height="136" viewBox="0 0 125 136" fill="none" xmlns="http://www.w3.org/2000/svg">
<g clip-path="url(#clip0)">
<path d="M62.66 38.93C62.66 38.93 57 64.46 60.59 80.19C64.18 95.92 71.17 116.29 79.42 121.45C87.67 126.61 124.47 133.18 124.47 133.18C124.47 133.18 85.86 134.78 70.65 134.26C55.44 133.74 0 135.37 0 135.37C41.31 134 57.81 125.48 60.85 117C63.46 109.75 54 105.38 54 81.22C54 69.13 55.32 61.22 57 54.84C58.4038 49.3771 60.2982 44.0521 62.66 38.93Z" fill="#233972"/>
<path d="M53.37 0C53.37 0 62.91 8.51 63.43 12.89C63.95 17.27 60.08 31.46 60.08 31.46C60.08 31.46 47.19 26.3 53.37 0Z" fill="#3352AD"/>
<path d="M87.67 15.73C87.67 15.73 86.67 36.36 84.32 38.93C81.97 41.5 68.32 52.09 68.32 52.09C68.32 52.09 59.56 18.31 87.67 15.73Z" fill="#81AEE5"/>
<path d="M27.25 22C27.25 22 44.61 27.76 46.84 33.91C49.07 40.06 51.73 45.72 51.69 50C51.65 54.28 21.23 37.3 27.25 22Z" fill="#3352AD"/>
<path d="M49.76 58.46C49.76 58.46 42 76.58 31 79.6C20 82.62 6.39001 74 6.39001 74C6.39001 74 22.76 51.89 49.76 58.46Z" fill="#6587DE"/>
<path d="M65.24 69.1C65.24 69.1 83.8 74.26 95.53 69.1C107.26 63.94 118.74 46.54 118.74 46.54C118.74 46.54 96.43 44.48 85.74 48.73C75.05 52.98 65.24 69.1 65.24 69.1Z" fill="#96C3FA"/>
<path d="M66.65 79.42C66.65 79.42 73.36 94.5 78.51 97.42C83.66 100.34 94.51 100.64 99.27 96.77C104.03 92.9 92.82 83.54 83 80.32C73.18 77.1 66.65 79.42 66.65 79.42Z" fill="#A1CBFF"/>
</g>
<defs>
<clipPath id="clip0">
<rect width="124.47" height="135.37" fill="white"/>
</clipPath>
</defs>
</svg>
